{"title":"Bangkok Dangerous.2008.x264.AC3(5.1)Nordic_Sub.mkv","uid":5444670,"size":1553151322,"categoryP":"video","categoryS":"movies","magnet":"?xt=urn:btih:6fcc9cff94e954ef5cc936efe9b8e5e265c10d7d&amp;dn=Bangkok+Dangerous.2008.x264.AC3%285.1%29Nordic_Sub.mkv&amp;tr=udp%3A%2F%2Ftracker.openbittorrent.com%3A80&amp;tr=udp%3A%2F%2Fopen.demonii.com%3A1337&amp;tr=udp%3A%2F%2Ftracker.coppersurfer.tk%3A6969&amp;tr=udp%3A%2F%2Fexodus.desync.com%3A6969","seeders":0,"leechers":0,"uploader":"Zen_Bud","files":-1,"time":1268981395,"description":"General\nComplete name                    : Bangkok Dangerous.mkv\nFormat                           : Matroska\nFile size                        : 1.45 GiB\nDuration                         : 1h 34mn\nOverall bit rate                 : 2 185 Kbps\nWriting application              : HandBrake 0.9.4\n\nVideo\nID                               : 1\nFormat                           : AVC\nDuration                         : 1h 34mn\nBit rate                         : 1 693 Kbps\nWidth                            : 720 pixels\nHeight                           : 560 pixels\nDisplay aspect ratio             : 16:9\nResolution                       : 8 bits\nColorimetry                      : 4:2:0\nScan type                        : Progressive\nBits/(Pixel*Frame)               : 0.168\nStream size                      : 1.12 GiB (78%)\nWriting library                  : x264 core 79\n\nAudio\nID                               : 2\nFormat                           : AC-3\nFormat/Info                      : Audio Coding 3\nCodec ID                         : A_AC3\nDuration                         : 1h 34mn\nBit rate mode                    : Constant\nBit rate                         : 448 Kbps\nChannel(s)                       : 6 channels\nChannel positions                : Front: L C R, Side: L R, LFE\nSampling rate                    : 48.0 KHz\nStream size                      : 304 MiB (21%)\nLanguage                         : English\n\nText #1\nLanguage                         : Danish\n\nText #2\nLanguage                         : Norwegian\n\nText #3\nLanguage                         : Swedish\n\nText #4\nLanguage                         : Finnish\n\nMenu\n00:00:00.000                     : Chapter  1\n\n\n","torrent":{"xt":"urn:btih:6fcc9cff94e954ef5cc936efe9b8e5e265c10d7d","amp;dn":"Bangkok+Dangerous.2008.x264.AC3%285.1%29Nordic_Sub.mkv","amp;tr":["udp%3A%2F%2Ftracker.openbittorrent.com%3A80","udp%3A%2F%2Fopen.demonii.com%3A1337","udp%3A%2F%2Ftracker.coppersurfer.tk%3A6969","udp%3A%2F%2Fexodus.desync.com%3A6969"],"infoHash":"6fcc9cff94e954ef5cc936efe9b8e5e265c10d7d","infoHashBuffer":{"type":"Buffer","data":[111,204,156,255,148,233,84,239,92,201,54,239,233,184,229,226,101,193,13,125]},"announce":[],"urlList":[]}}